<?xml version="1.0" encoding="utf-8"?>
<!-- Generator: Adobe Illustrator 22.1.0, SVG Export Plug-In . SVG Version: 6.00 Build 0)  -->
<svg version="1.1" id="Layer_1" xmlns="http://www.w3.org/2000/svg" xmlns:xlink="http://www.w3.org/1999/xlink" x="0px" y="0px"
	 viewBox="0 0 291.3 291.3" style="enable-background:new 0 0 291.3 291.3;" xml:space="preserve">
<style type="text/css">
	.st0{fill:#003847;}
	.st1{fill:#FFFFFF;}
</style>
<g>
	<path class="st0" d="M145.7,0c80.4,0,145.7,65.2,145.7,145.7s-65.2,145.7-145.7,145.7S0,226.1,0,145.7S65.2,0,145.7,0z"/>
	<path class="st1" d="M142.1,118.4c4.6,0,8.2-1.5,10.9-3.6c2.6-2.1,3.9-4.9,3.9-8.6V84.1c0-3.2-1.3-5.9-4-8
		c-2.7-2.1-6.1-3.1-10.3-3.1c-4.6,0-8.3,1-11,2.9c-2.7,2-4.1,4.6-4.1,7.9V106c0,3.6,1.3,6.5,4,8.7S137.7,118.4,142.1,118.4z
		 M137.3,84.9c0-0.8,0.4-1.5,1.3-2c0.9-0.5,2-0.8,3.4-0.8c1.5,0,2.7,0.3,3.7,0.8c0.9,0.5,1.4,1.2,1.4,2v21c0,1-0.5,1.9-1.4,2.4
		c-0.9,0.6-2.1,0.9-3.7,0.9c-1.5,0-2.7-0.3-3.5-0.9c-0.8-0.6-1.2-1.4-1.2-2.5V84.9z M172.6,118.3c1.6,0,3.3-0.9,5-1.9
		c1.7-0.9,3.4-2.3,5-4.1v4.9h8.6V73h-8.6v33.6c-0.8,1-1.7,1.7-2.6,2.4c-1,0.6-1.8,0.9-2.4,0.9c-0.8,0-1.4-0.2-1.7-0.7
		c-0.4-0.5-0.6-1.2-0.6-2.3V73h-8.6v37c0,2.6,0.5,4.6,1.5,5.9C169.1,117.2,170.6,118.3,172.6,118.3z M197.6,136.6h-104
		c-16.5,0-29.9,12.9-29.9,28.8v24.3c0,15.9,13.4,28.8,29.9,28.8h104c16.5,0,29.9-12.9,29.9-28.8v-24.3
		C227.6,149.5,214.2,136.6,197.6,136.6z M109.1,161.3h-9.2v38.1h-8.9v-38.1h-9.2v-6.5h27.3C109.1,154.8,109.1,161.3,109.1,161.3z
		 M136.6,199.9H127v-4c-1.8,1.5-3.6,2.6-5.5,3.3c-1.9,0.8-3.8,1.2-5.6,1.2c-2.2,0-3.9-0.5-5-1.6c-1.1-1.1-1.7-2.7-1.7-4.8v-30.1h9.6
		v27.6c0,0.9,0.2,1.5,0.6,1.8c0.4,0.4,1.1,0.6,2,0.6c0.7,0,1.6-0.2,2.7-0.8c1.1-0.5,2.1-1.1,3-1.9v-27.3h9.6
		C136.6,163.9,136.6,199.9,136.6,199.9z M172.9,193.1c0,2.4-0.7,4.2-2.2,5.4c-1.5,1.3-3.6,1.9-6.4,1.9c-1.9,0-3.5-0.2-5-0.7
		c-1.4-0.5-2.8-1.2-4.1-2.3v2.5h-9.6v-45.1h9.6v14.5c1.3-1,2.6-1.8,4.1-2.3c1.4-0.5,2.9-0.8,4.4-0.8c3,0,5.3,0.7,6.9,2.1
		c1.6,1.4,2.4,3.5,2.4,6.2C172.9,174.6,172.9,193.1,172.9,193.1z M209.3,182.9h-17.7v6.5c0,1.8,0.3,3.1,0.9,3.8c0.6,0.7,1.7,1,3.1,1
		c1.5,0,2.6-0.3,3.2-0.9c0.6-0.6,0.9-1.9,0.9-3.9v-1.6h9.5v1.8c0,3.5-1.1,6.2-3.5,8c-2.3,1.8-5.8,2.7-10.4,2.7
		c-4.1,0-7.4-0.9-9.8-2.8c-2.4-1.9-3.6-4.5-3.6-7.8v-15.5c0-3,1.3-5.4,3.9-7.3c2.6-1.9,6-2.8,10.1-2.8c4.2,0,7.5,0.9,9.8,2.6
		c2.3,1.7,3.4,4.3,3.4,7.5C209.3,174.1,209.3,182.9,209.3,182.9z M104,118.5h10.9V92l12.6-37.3h-11l-6.7,25.5H109l-7-25.5H91
		L104,93.2C104,93.2,104,118.5,104,118.5z M159.2,171.5l-2,0.3l-2,1v20.7c0.8,0.5,1.5,0.9,2.2,1.2l2.3,0.4c1.2,0,2-0.2,2.6-0.7
		c0.5-0.5,0.8-1.2,0.8-2.3V175c0-1.1-0.3-2-1-2.6C161.4,171.8,160.4,171.5,159.2,171.5z"/>
	<path class="st1" d="M196.2,170c-1.5,0-2.5,0.3-3.2,0.9c-0.6,0.6-0.9,1.6-0.9,3.1v3.5h8.2v-3.5c0-1.4-0.3-2.5-1-3.1
		C198.7,170.3,197.6,170,196.2,170z"/>
</g>
</svg>
